<?xml version="1.0" encoding="iso-8859-1"?>
<!-- Generator: Adobe Illustrator 19.0.0, SVG Export Plug-In . SVG Version: 6.00 Build 0)  -->
<svg version="1.1" id="Capa_1" xmlns="http://www.w3.org/2000/svg" xmlns:xlink="http://www.w3.org/1999/xlink" x="0px" y="0px"
	 viewBox="0 0 512 512" style="enable-background:new 0 0 512 512;" xml:space="preserve">
<rect x="160.76" y="226.13" style="fill:#EE7F2A;" width="190" height="259.18"/>
<rect x="255.76" y="226.13" style="fill:#EB6529;" width="95" height="259.18"/>
<path style="fill:#35B25B;" d="M350.716,166.133H161.083c0-44.464,36.174-80.638,80.638-80.638h28.357
	C314.542,85.495,350.716,121.669,350.716,166.133z"/>
<path style="fill:#279246;" d="M255.759,166.133h94.957c0-44.464-36.174-80.638-80.638-80.638h-14.319V166.133z"/>
<path style="fill:#52B6FC;" d="M189.632,511.774H0v-15c0-44.464,36.174-80.638,80.638-80.638h28.356
	c44.464,0,80.638,36.174,80.638,80.638V511.774z"/>
<path style="fill:#FFDFCF;" d="M94.716,446.136c-31.78,0-57.635-25.855-57.635-57.635s25.854-57.635,57.635-57.635
	s57.635,25.855,57.635,57.635S126.496,446.136,94.716,446.136z"/>
<path style="fill:#265185;" d="M512,511.774H322.368v-15c0-44.464,36.174-80.638,80.638-80.638h28.356
	c44.464,0,80.638,36.174,80.638,80.638V511.774z"/>
<path style="fill:#FFDFCF;" d="M417.084,446.136c-31.78,0-57.635-25.855-57.635-57.635s25.854-57.635,57.635-57.635
	s57.635,25.855,57.635,57.635S448.864,446.136,417.084,446.136z"/>
<path style="fill:#183866;" d="M512,511.774H322.368v-15c0-44.464,36.174-80.638,80.638-80.638h28.356
	c44.464,0,80.638,36.174,80.638,80.638V511.774z"/>
<path style="fill:#FFCEBF;" d="M417.084,446.136c-31.78,0-57.635-25.855-57.635-57.635s25.854-57.635,57.635-57.635
	s57.635,25.855,57.635,57.635S448.864,446.136,417.084,446.136z"/>
<path style="fill:#EA0016;" d="M350.716,511.774H161.084v-15c0-44.464,36.174-80.638,80.638-80.638h28.356
	c44.464,0,80.638,36.174,80.638,80.638V511.774z"/>
<path style="fill:#C30010;" d="M270.078,416.136h-14.319v95.638h94.957v-15C350.716,452.31,314.542,416.136,270.078,416.136z"/>
<path style="fill:#FFDFCF;" d="M255.8,446.136c-31.78,0-57.635-25.855-57.635-57.635s25.854-57.635,57.635-57.635
	s57.635,25.855,57.635,57.635S287.58,446.136,255.8,446.136z"/>
<path style="fill:#FFCEBF;" d="M255.8,330.867v115.27c31.78,0,57.635-25.855,57.635-57.635S287.58,330.867,255.8,330.867z"/>
<path style="fill:#FDA42D;" d="M396.244,241.176H115.756v-90.003h280.488L396.244,241.176L396.244,241.176z"/>
<rect x="255.76" y="151.17" style="fill:#EE7F2A;" width="140.49" height="90"/>
<path style="fill:#FFDFCF;" d="M255.799,115.495c-31.78,0-57.635-25.855-57.635-57.635S224.02,0.226,255.799,0.226
	s57.635,25.855,57.635,57.635S287.579,115.495,255.799,115.495z"/>
<path style="fill:#FFCEBF;" d="M255.799,0.226v115.27c31.78,0,57.635-25.855,57.635-57.635S287.579,0.226,255.799,0.226z"/>
<g>
</g>
<g>
</g>
<g>
</g>
<g>
</g>
<g>
</g>
<g>
</g>
<g>
</g>
<g>
</g>
<g>
</g>
<g>
</g>
<g>
</g>
<g>
</g>
<g>
</g>
<g>
</g>
<g>
</g>
</svg>
