<?xml version="1.0" encoding="iso-8859-1"?>
<!-- Generator: Adobe Illustrator 19.0.0, SVG Export Plug-In . SVG Version: 6.00 Build 0)  -->
<svg version="1.1" id="Layer_1" xmlns="http://www.w3.org/2000/svg" xmlns:xlink="http://www.w3.org/1999/xlink" x="0px" y="0px"
	 viewBox="0 0 512 512" style="enable-background:new 0 0 512 512;" xml:space="preserve">
<g>
	<path style="fill:#E4F1FB;" d="M378.251,0.305H1.671C0.749,0.305,0,1.053,0,1.976v124.909c0,0.923,0.749,1.671,1.671,1.671h376.58
		c0.923,0,1.671-0.749,1.671-1.671V1.976C379.922,1.053,379.173,0.305,378.251,0.305z"/>
	<path style="fill:#E4F1FB;" d="M396.399,376.62l-5.819-3.165c-10.46-5.688-18.31-15.495-21.54-26.905l-2.365-8.354
		c-0.209-0.738-0.865-1.244-1.657-1.216l-8.703,0.253l-0.033,0.004c-9.115-0.114-16.531-7.622-16.531-16.737
		c0-0.701,0.049-1.413,0.15-2.178l1.652-12.592c0.064-0.478-0.084-0.958-0.4-1.319c-0.318-0.361-0.775-0.569-1.257-0.569H1.671
		c-0.923,0-1.671,0.749-1.671,1.671v124.907c0,0.922,0.749,1.671,1.671,1.671h321.707l3.832,0.64
		c0.091,0.016,0.184,0.022,0.275,0.022c0.307,0,0.611-0.085,0.876-0.248l3.555-2.187c2.386-1.468,4.836-2.668,6.966-3.401
		l57.327-22.439c0.641-0.251,1.062-0.868,1.062-1.555v-24.835C397.271,377.475,396.936,376.912,396.399,376.62z"/>
	<path style="fill:#E4F1FB;" d="M378.251,152.073H1.671c-0.923,0-1.671,0.749-1.671,1.671v124.907c0,0.923,0.749,1.671,1.671,1.671
		h335.706c0.862,0,1.584-0.657,1.663-1.516l0.94-10.11c1.885-20.272,13.081-29.802,33.081-40.296l5.965-3.131
		c0.549-0.289,0.895-0.859,0.895-1.48v-70.046C379.922,152.822,379.173,152.073,378.251,152.073z"/>
</g>
<g>
	<path style="fill:#FFFFFF;" d="M225.879,58.359h-92.154c-4.616,0-8.356-3.74-8.356-8.356s3.74-8.356,8.356-8.356h92.154
		c4.616,0,8.356,3.74,8.356,8.356S230.495,58.359,225.879,58.359z"/>
	<path style="fill:#FFFFFF;" d="M318.033,95.237H133.725c-4.616,0-8.356-3.74-8.356-8.356s3.74-8.356,8.356-8.356h184.308
		c4.616,0,8.356,3.74,8.356,8.356S322.648,95.237,318.033,95.237z"/>
	<path style="fill:#FFFFFF;" d="M225.879,210.124h-92.154c-4.616,0-8.356-3.74-8.356-8.356s3.74-8.356,8.356-8.356h92.154
		c4.616,0,8.356,3.74,8.356,8.356S230.495,210.124,225.879,210.124z"/>
	<path style="fill:#FFFFFF;" d="M316.004,247.004H133.725c-4.616,0-8.356-3.74-8.356-8.356s3.74-8.356,8.356-8.356h182.279
		c4.616,0,8.356,3.74,8.356,8.356C324.36,243.263,320.618,247.004,316.004,247.004z"/>
	<path style="fill:#FFFFFF;" d="M225.879,361.892h-92.154c-4.616,0-8.356-3.74-8.356-8.356c0-4.616,3.74-8.356,8.356-8.356h92.154
		c4.616,0,8.356,3.74,8.356,8.356C234.235,358.152,230.495,361.892,225.879,361.892z"/>
	<path style="fill:#FFFFFF;" d="M314.697,398.772H133.725c-4.616,0-8.356-3.74-8.356-8.356c0-4.616,3.74-8.356,8.356-8.356h180.972
		c4.616,0,8.356,3.74,8.356,8.356C323.053,395.031,319.313,398.772,314.697,398.772z"/>
</g>
<path style="fill:#324A5E;" d="M94.078,104.49H35.977c-4.615,0-8.356-3.74-8.356-8.356V40.751c0-4.616,3.741-8.356,8.356-8.356
	h42.148c4.616,0,8.356,3.74,8.356,8.356s-3.74,8.356-8.356,8.356H44.333v38.671h41.389v-6.586c0-4.616,3.74-8.356,8.356-8.356
	c4.616,0,8.356,3.74,8.356,8.356v14.942C102.434,100.749,98.694,104.49,94.078,104.49z"/>
<path style="fill:#75BF4D;" d="M70.762,85.095c-0.019,0-0.036,0-0.055,0c-2.322-0.016-4.531-0.996-6.102-2.706L49.951,66.426
	c-3.121-3.399-2.895-8.685,0.507-11.807c3.398-3.12,8.684-2.896,11.805,0.506l8.579,9.347L98.599,35.02
	c3.165-3.361,8.454-3.514,11.811-0.35c3.359,3.165,3.515,8.454,0.351,11.811L76.843,82.47
	C75.265,84.147,73.063,85.095,70.762,85.095z"/>
<path style="fill:#324A5E;" d="M94.078,256.256H35.977c-4.615,0-8.356-3.74-8.356-8.356v-55.383c0-4.616,3.741-8.356,8.356-8.356
	h42.148c4.616,0,8.356,3.74,8.356,8.356s-3.74,8.356-8.356,8.356H44.333v38.671h41.389v-6.586c0-4.616,3.74-8.356,8.356-8.356
	c4.616,0,8.356,3.74,8.356,8.356V247.9C102.434,252.516,98.694,256.256,94.078,256.256z"/>
<path style="fill:#75BF4D;" d="M70.762,236.862c-0.019,0-0.036,0-0.055,0c-2.322-0.016-4.531-0.996-6.102-2.706l-14.654-15.965
	c-3.121-3.399-2.895-8.685,0.507-11.807c3.398-3.12,8.684-2.896,11.805,0.506l8.579,9.347l27.757-29.451
	c3.165-3.36,8.454-3.514,11.811-0.35c3.359,3.165,3.515,8.454,0.351,11.812l-33.918,35.989
	C75.265,235.914,73.063,236.862,70.762,236.862z"/>
<path style="fill:#324A5E;" d="M94.078,408.024H35.977c-4.615,0-8.356-3.741-8.356-8.356v-55.383c0-4.616,3.741-8.356,8.356-8.356
	h42.148c4.616,0,8.356,3.74,8.356,8.356c0,4.616-3.74,8.356-8.356,8.356H44.333v38.671h41.389v-6.586
	c0-4.616,3.74-8.356,8.356-8.356c4.616,0,8.356,3.74,8.356,8.356v14.942C102.434,404.284,98.694,408.024,94.078,408.024z"/>
<path style="fill:#75BF4D;" d="M70.762,388.631c-0.019,0-0.036,0-0.055,0c-2.322-0.016-4.531-0.995-6.102-2.706L49.951,369.96
	c-3.121-3.399-2.895-8.685,0.507-11.807c3.398-3.12,8.684-2.896,11.805,0.506l8.579,9.347l27.757-29.451
	c3.165-3.361,8.454-3.514,11.811-0.35c3.359,3.165,3.515,8.454,0.351,11.812l-33.918,35.988
	C75.265,387.681,73.063,388.631,70.762,388.631z"/>
<path style="fill:#6598CB;" d="M512,468.959c0-0.888-0.023-1.757-0.055-2.624c-0.007-0.121-0.004-0.246-0.011-0.368
	c-0.018-0.44-0.053-0.866-0.08-1.3c-0.033-0.552-0.061-1.109-0.107-1.651c-0.019-0.227-0.051-0.447-0.071-0.672
	c-0.072-0.741-0.147-1.481-0.242-2.202c-0.008-0.062-0.02-0.123-0.028-0.185c-1.98-14.802-8.719-25.613-16.297-32.98
	c-0.035-0.036-0.068-0.069-0.105-0.105c-0.399-0.383-0.794-0.76-1.195-1.125c-0.197-0.183-0.396-0.355-0.597-0.531
	c-0.231-0.208-0.465-0.416-0.695-0.614c-0.384-0.333-0.77-0.653-1.156-0.966c-0.043-0.033-0.085-0.07-0.128-0.103
	c-4.859-3.93-9.723-6.487-13.537-7.806c-0.017-0.006-0.032-0.013-0.05-0.018l-0.1-0.038c-0.012-0.002-0.025-0.007-0.037-0.012
	l-50.054-20.07l-12.506,12.979l-12.789,12.456l-12.788-12.456l-12.504-12.979l-50.057,20.07c-0.01,0.006-0.025,0.01-0.036,0.012
	l-0.1,0.038c-0.016,0.004-0.033,0.012-0.048,0.018c-3.817,1.319-8.68,3.876-13.54,7.806c-0.04,0.032-0.086,0.068-0.125,0.103
	c-0.387,0.313-0.774,0.633-1.156,0.966c-0.234,0.198-0.468,0.406-0.697,0.614c-0.202,0.175-0.399,0.349-0.597,0.531
	c-0.401,0.365-0.798,0.742-1.195,1.125c-0.036,0.036-0.068,0.068-0.107,0.105c-7.575,7.366-14.314,18.176-16.294,32.98
	c-0.009,0.062-0.02,0.123-0.028,0.185c-0.096,0.72-0.169,1.461-0.242,2.202c-0.02,0.224-0.052,0.443-0.07,0.672
	c-0.048,0.543-0.075,1.1-0.109,1.651c-0.027,0.435-0.064,0.861-0.082,1.3c-0.004,0.121-0.002,0.246-0.008,0.368
	c-0.031,0.867-0.056,1.737-0.056,2.624v7.956h0.001v24.313c0.326,3.793,2.291,10.466,12.102,10.466h11.959h171.555h11.961
	c9.81,0,11.772-6.673,12.101-10.466v-24.313l0,0v-7.956H512z"/>
<path style="fill:#4982AA;" d="M376.624,396.158l-49.795,19.502l-0.155,0.055c-12.758,4.551-34.355,20.887-34.355,53.246v32.269
	c0.326,3.793,2.291,10.466,12.102,10.466h2.521V468.96c0-32.359,21.596-48.695,34.355-53.246l0.154-0.055l39.364-15.415
	L376.624,396.158z"/>
<path style="fill:#694B4B;" d="M404.736,213.526h-5.398c-36.858,0-66.842,29.988-66.842,66.844v8.915v8.345v14.098
	c0,0,15.217-1.51,17.09-8.89l-0.011-0.008c0.643-0.697,1.181-1.496,1.561-2.385c8.632-0.261,48.955-0.575,71.984-28.386
	c2.749,8.039,12.045,23.261,29.934,28.056c0.365,0.969,0.914,1.844,1.583,2.603l-0.148,0.119c1.871,7.379,17.09,8.89,17.09,8.89
	v-14.155v-8.288v-8.915C471.58,243.514,441.593,213.526,404.736,213.526z M455.133,298.039l0.642-0.466h0.092l-1.05,0.777
	L455.133,298.039z M454.806,298.239l0.074-0.225l0.224-0.441h0.091l-0.266,0.55L454.806,298.239z M453.032,299.611l-0.023-0.036
	l1.647-1.192l-0.388,0.377l-1.206,0.89L453.032,299.611z M454.393,299.224l-0.518,1.067c-0.004-0.001-0.004-0.001-0.007-0.002
	l-0.074-0.035c-0.011-0.003-0.026-0.013-0.035-0.02l0.842-1.671l0.022-0.022L454.393,299.224z"/>
<path style="fill:#563B3B;" d="M344.279,297.63v-8.345v-8.915c0-35.787,28.27-65.089,63.651-66.763
	c-1.06-0.05-2.124-0.081-3.193-0.081h-5.398c-36.858,0-66.842,29.988-66.842,66.844v8.915v8.345v14.098c0,0,6.724-0.67,11.782-3.284
	L344.279,297.63L344.279,297.63z"/>
<path style="fill:#FBCB99;" d="M463.553,302.037c-2.557-0.798-5.336-0.332-7.495,1.252c-2.154,1.587-3.427,4.106-3.427,6.782v23.983
	c0,2.675,1.271,5.192,3.427,6.776c1.464,1.077,3.217,1.639,4.989,1.639c0.838,0,1.682-0.125,2.501-0.381
	c1.613-0.502,3.2-1.228,4.712-2.156c0.888-0.545,1.669-1.255,2.301-2.085c0.927-0.479,1.761-1.126,2.451-1.907
	c3.403-3.845,5.277-8.773,5.277-13.881C478.291,312.833,472.368,304.785,463.553,302.037z"/>
<path style="fill:#EDBA89;" d="M348.261,303.29c-2.157-1.584-4.937-2.05-7.493-1.253c-8.814,2.749-14.738,10.796-14.738,20.024
	c0,9.233,5.923,17.28,14.738,20.029c0.819,0.255,1.663,0.381,2.505,0.381c1.774,0,3.522-0.562,4.987-1.638
	c2.158-1.585,3.43-4.102,3.43-6.777V310.07C351.692,307.395,350.419,304.876,348.261,303.29z"/>
<path style="fill:#FBCB99;" d="M425.139,375.863c-1.654-1.584-3.874-2.414-6.181-2.33l-0.287,0.014
	c-0.514,0.018-1.026,0.082-1.525,0.194c-3.253,0.722-6.565,1.09-9.839,1.09h-10.289c-3.374,0-6.781-0.387-10.132-1.153
	c-2.502-0.578-5.124,0.019-7.125,1.617c-2.004,1.598-3.173,4.022-3.173,6.582v24.483l-0.006,0.081
	c-0.134,2.43,0.789,4.797,2.53,6.495l16.913,16.47c1.571,1.533,3.678,2.385,5.872,2.385c0.045,0,0.091,0,0.135,0
	c2.239-0.037,4.372-0.963,5.925-2.577l17.422-18.085c1.512-1.568,2.354-3.659,2.354-5.835v-23.351
	C427.732,379.646,426.796,377.45,425.139,375.863z"/>
<path style="fill:#EDBA89;" d="M403.6,426.88l-16.913-16.469c-1.744-1.697-2.665-4.064-2.531-6.495l0.009-0.082v-24.482
	c0-2.154,0.83-4.2,2.285-5.751c-2.368-0.411-4.801,0.194-6.689,1.693c-2.004,1.598-3.173,4.022-3.173,6.582v24.483l-0.006,0.081
	c-0.134,2.43,0.789,4.797,2.53,6.495l16.913,16.47c1.571,1.533,3.678,2.385,5.872,2.385c0.045,0,0.091,0,0.135,0
	c2.239-0.037,4.372-0.963,5.925-2.577l0.074-0.079C406.372,428.85,404.822,428.071,403.6,426.88z"/>
<path style="fill:#FBCB99;" d="M451.363,295.168c-1.019-0.379-1.979-0.82-2.916-1.291c-14.143-6.598-20.012-15.18-22.375-20.301
	c-0.142-0.194-0.281-0.406-0.427-0.673c-1.691-3.107-4.324-1.141-4.324-1.141l-0.011-0.007
	c-13.207,10.131-27.632,16.054-39.626,19.501c-4.668,1.379-9.14,2.379-13.186,3.102c-8.037,1.476-13.206,1.669-13.206,1.669
	c-4.402,0.319-7.813,3.983-7.813,8.396v34.341c0,27.314,22.222,49.535,49.536,49.535h10.289c27.311,0,49.534-22.22,49.534-49.535
	v-35.709C456.84,299.539,454.654,296.397,451.363,295.168z"/>
<path style="fill:#EDBA89;" d="M357.581,338.764v-34.341c0-4.413,3.408-8.078,7.811-8.396c0,0,5.169-0.193,13.207-1.669
	c4.047-0.723,8.518-1.722,13.189-3.102c10.611-3.052,23.133-8.047,35.029-16.18c-0.28-0.524-0.528-1.025-0.745-1.5
	c-0.142-0.194-0.281-0.406-0.427-0.673c-1.691-3.107-4.324-1.141-4.324-1.141l-0.011-0.007
	c-13.207,10.131-27.632,16.054-39.626,19.501c-4.668,1.379-9.14,2.379-13.186,3.102c-8.037,1.476-13.206,1.669-13.206,1.669
	c-4.402,0.319-7.813,3.983-7.813,8.396v34.341c0,27.314,22.222,49.535,49.536,49.535h10.095
	C379.803,388.299,357.581,366.078,357.581,338.764z"/>
<g>
</g>
<g>
</g>
<g>
</g>
<g>
</g>
<g>
</g>
<g>
</g>
<g>
</g>
<g>
</g>
<g>
</g>
<g>
</g>
<g>
</g>
<g>
</g>
<g>
</g>
<g>
</g>
<g>
</g>
</svg>
